<svg xmlns="http://www.w3.org/2000/svg" viewBox="0 0 100 100" width="200" height="200">
  <rect x="29" y="72" width="11" height="16" rx="5.5" fill="#98341b"/>
  <rect x="57" y="74" width="11" height="14" rx="5.5" fill="#98341b"/>
  <rect x="18" y="46" width="9" height="23" rx="4.5" fill="#98341b" transform="rotate(14 22.5 48)"/>
  <g transform="rotate(7 50 80)">
    <rect x="24" y="28" width="52" height="50" rx="12" fill="#E8927C" stroke="#98341b" stroke-width="2"/>
    <circle cx="41" cy="50" r="4.2" fill="#98341b"/>
    <circle cx="61" cy="50" r="4.2" fill="#98341b"/>
  <path d="M50 28 V20" stroke="#98341b" stroke-width="2" stroke-linecap="round" fill="none"/>
  <rect x="44" y="5" width="12" height="16" rx="6" fill="none" stroke="#98341b" stroke-width="2"/>
  <rect x="47.5" y="8.5" width="5" height="11" rx="2.5" fill="none" stroke="#98341b" stroke-width="2"/>
  </g>
  <g transform="rotate(-10 80 62)">
    <rect x="68" y="54" width="24" height="17" rx="2" fill="#E8927C" stroke="#98341b" stroke-width="2"/>
    <path d="M80 55 V70" stroke="#98341b" stroke-width="2"/>
    <path d="M71 60 H77 M71 65 H77 M83 60 H89 M83 65 H89" stroke="#ebc9c0" stroke-width="2"/>
  </g>
  <rect x="73" y="47" width="9" height="22" rx="4.5" fill="#98341b" transform="rotate(-12 77.5 49)"/>
</svg>
