<svg xmlns="http://www.w3.org/2000/svg" viewBox="0 0 100 100" width="200" height="200">
  <rect x="32" y="72" width="12" height="16" rx="5.5" fill="#51513D"/>
  <rect x="56" y="72" width="12" height="16" rx="5.5" fill="#51513D"/>
  <rect x="13" y="50" width="9" height="22" rx="4.5" fill="#51513D"/>
  <g transform="rotate(14 86 30)">
    <rect x="74" y="14" width="21" height="18" rx="2" fill="#E3DC95" stroke="#51513D" stroke-width="2"/>
    <path d="M78 20 H87 M78 24 H91 M78 28 H85" stroke="#C9C3A6" stroke-width="2"/>
  </g>
  <rect x="78" y="30" width="9" height="24" rx="4.5" fill="#51513D" transform="rotate(16 82 52)"/>
  <rect x="23" y="32" width="54" height="46" rx="12" fill="#E3DC95" stroke="#51513D" stroke-width="2"/>
  <circle cx="40" cy="52" r="4.2" fill="#51513D"/>
  <circle cx="60" cy="52" r="4.2" fill="#51513D"/>
  <path d="M50 32 V24" stroke="#51513D" stroke-width="2" stroke-linecap="round" fill="none"/>
  <rect x="44" y="9" width="12" height="16" rx="6" fill="none" stroke="#51513D" stroke-width="2"/>
  <rect x="47.5" y="12.5" width="5" height="11" rx="2.5" fill="none" stroke="#51513D" stroke-width="2"/>
</svg>
